<svg width="250" height="80" viewBox="0 0 250 80" fill="none" xmlns="http://www.w3.org/2000/svg">
<rect width="250" height="80" rx="15" fill="#F6B201"/>
<path d="M42.1028 36V18.584L42.9708 19.48H35.6348V16.4H52.2108V19.48H44.8748L45.7148 18.584V36H42.1028ZM59.7829 36.196C58.2522 36.196 56.8895 35.8693 55.6949 35.216C54.5002 34.544 53.5575 33.6293 52.8669 32.472C52.1762 31.3147 51.8309 29.9987 51.8309 28.524C51.8309 27.0307 52.1762 25.7147 52.8669 24.576C53.5575 23.4187 54.5002 22.5133 55.6949 21.86C56.8895 21.2067 58.2522 20.88 59.7829 20.88C61.3322 20.88 62.7042 21.2067 63.8989 21.86C65.1122 22.5133 66.0549 23.4093 66.7269 24.548C67.4175 25.6867 67.7629 27.012 67.7629 28.524C67.7629 29.9987 67.4175 31.3147 66.7269 32.472C66.0549 33.6293 65.1122 34.544 63.8989 35.216C62.7042 35.8693 61.3322 36.196 59.7829 36.196ZM59.7829 33.2C60.6415 33.2 61.4069 33.0133 62.0789 32.64C62.7509 32.2667 63.2735 31.7253 63.6469 31.016C64.0389 30.3067 64.2349 29.476 64.2349 28.524C64.2349 27.5533 64.0389 26.7227 63.6469 26.032C63.2735 25.3227 62.7509 24.7813 62.0789 24.408C61.4069 24.0347 60.6509 23.848 59.8109 23.848C58.9522 23.848 58.1869 24.0347 57.5149 24.408C56.8615 24.7813 56.3389 25.3227 55.9469 26.032C55.5549 26.7227 55.3589 27.5533 55.3589 28.524C55.3589 29.476 55.5549 30.3067 55.9469 31.016C56.3389 31.7253 56.8615 32.2667 57.5149 32.64C58.1869 33.0133 58.9429 33.2 59.7829 33.2ZM70.9124 36V21.048H78.2204C80.0311 21.048 81.4498 21.384 82.4764 22.056C83.5218 22.728 84.0444 23.68 84.0444 24.912C84.0444 26.1253 83.5591 27.0773 82.5884 27.768C81.6178 28.44 80.3298 28.776 78.7244 28.776L79.1444 27.908C80.9551 27.908 82.2991 28.244 83.1764 28.916C84.0724 29.5693 84.5204 30.5307 84.5204 31.8C84.5204 33.1253 84.0258 34.1613 83.0364 34.908C82.0471 35.636 80.5444 36 78.5284 36H70.9124ZM74.2444 33.452H78.2484C79.2004 33.452 79.9191 33.3027 80.4044 33.004C80.8898 32.6867 81.1324 32.2107 81.1324 31.576C81.1324 30.904 80.9084 30.4093 80.4604 30.092C80.0124 29.7747 79.3124 29.616 78.3604 29.616H74.2444V33.452ZM74.2444 27.292H77.9124C78.8084 27.292 79.4804 27.1333 79.9284 26.816C80.3951 26.48 80.6284 26.0133 80.6284 25.416C80.6284 24.8 80.3951 24.3427 79.9284 24.044C79.4804 23.7453 78.8084 23.596 77.9124 23.596H74.2444V27.292ZM97.0124 36V32.976L96.8164 32.332V27.04C96.8164 26.0133 96.5084 25.22 95.8924 24.66C95.2764 24.0813 94.343 23.792 93.0924 23.792C92.2524 23.792 91.4217 23.9227 90.6004 24.184C89.7977 24.4453 89.1164 24.8093 88.5564 25.276L87.1844 22.728C87.987 22.112 88.939 21.6547 90.0404 21.356C91.1604 21.0387 92.3177 20.88 93.5124 20.88C95.6777 20.88 97.3484 21.4027 98.5244 22.448C99.719 23.4747 100.316 25.0707 100.316 27.236V36H97.0124ZM92.3084 36.196C91.1884 36.196 90.2084 36.0093 89.3684 35.636C88.5284 35.244 87.875 34.712 87.4084 34.04C86.9604 33.3493 86.7364 32.5747 86.7364 31.716C86.7364 30.876 86.9324 30.12 87.3244 29.448C87.735 28.776 88.3977 28.244 89.3124 27.852C90.227 27.46 91.4404 27.264 92.9524 27.264H97.2924V29.588H93.2044C92.0097 29.588 91.207 29.784 90.7964 30.176C90.3857 30.5493 90.1804 31.016 90.1804 31.576C90.1804 32.2107 90.4324 32.7147 90.9364 33.088C91.4404 33.4613 92.1404 33.648 93.0364 33.648C93.895 33.648 94.6604 33.452 95.3324 33.06C96.023 32.668 96.5177 32.0893 96.8164 31.324L97.4044 33.424C97.0684 34.3013 96.4617 34.9827 95.5844 35.468C94.7257 35.9533 93.6337 36.196 92.3084 36.196ZM112.627 36.196C111.414 36.196 110.303 35.916 109.295 35.356C108.306 34.796 107.513 33.956 106.915 32.836C106.337 31.6973 106.047 30.26 106.047 28.524C106.047 26.7693 106.327 25.332 106.887 24.212C107.466 23.092 108.25 22.2613 109.239 21.72C110.229 21.16 111.358 20.88 112.627 20.88C114.102 20.88 115.399 21.1973 116.519 21.832C117.658 22.4667 118.554 23.3533 119.207 24.492C119.879 25.6307 120.215 26.9747 120.215 28.524C120.215 30.0733 119.879 31.4267 119.207 32.584C118.554 33.7227 117.658 34.6093 116.519 35.244C115.399 35.8787 114.102 36.196 112.627 36.196ZM104.339 41.432V21.048H107.671V24.576L107.559 28.552L107.839 32.528V41.432H104.339ZM112.235 33.2C113.075 33.2 113.822 33.0133 114.475 32.64C115.147 32.2667 115.679 31.7253 116.071 31.016C116.463 30.3067 116.659 29.476 116.659 28.524C116.659 27.5533 116.463 26.7227 116.071 26.032C115.679 25.3227 115.147 24.7813 114.475 24.408C113.822 24.0347 113.075 23.848 112.235 23.848C111.395 23.848 110.639 24.0347 109.967 24.408C109.295 24.7813 108.763 25.3227 108.371 26.032C107.979 26.7227 107.783 27.5533 107.783 28.524C107.783 29.476 107.979 30.3067 108.371 31.016C108.763 31.7253 109.295 32.2667 109.967 32.64C110.639 33.0133 111.395 33.2 112.235 33.2ZM130.821 36V21.048H142.301V24.016H133.509L134.321 23.232V36H130.821ZM150.548 36.196C149.017 36.196 147.655 35.8693 146.46 35.216C145.265 34.544 144.323 33.6293 143.632 32.472C142.941 31.3147 142.596 29.9987 142.596 28.524C142.596 27.0307 142.941 25.7147 143.632 24.576C144.323 23.4187 145.265 22.5133 146.46 21.86C147.655 21.2067 149.017 20.88 150.548 20.88C152.097 20.88 153.469 21.2067 154.664 21.86C155.877 22.5133 156.82 23.4093 157.492 24.548C158.183 25.6867 158.528 27.012 158.528 28.524C158.528 29.9987 158.183 31.3147 157.492 32.472C156.82 33.6293 155.877 34.544 154.664 35.216C153.469 35.8693 152.097 36.196 150.548 36.196ZM150.548 33.2C151.407 33.2 152.172 33.0133 152.844 32.64C153.516 32.2667 154.039 31.7253 154.412 31.016C154.804 30.3067 155 29.476 155 28.524C155 27.5533 154.804 26.7227 154.412 26.032C154.039 25.3227 153.516 24.7813 152.844 24.408C152.172 24.0347 151.416 23.848 150.576 23.848C149.717 23.848 148.952 24.0347 148.28 24.408C147.627 24.7813 147.104 25.3227 146.712 26.032C146.32 26.7227 146.124 27.5533 146.124 28.524C146.124 29.476 146.32 30.3067 146.712 31.016C147.104 31.7253 147.627 32.2667 148.28 32.64C148.952 33.0133 149.708 33.2 150.548 33.2ZM164.239 36V23.176L165.051 24.016H158.975V21.048H172.975V24.016H166.927L167.739 23.176V36H164.239ZM181.213 36.196C179.683 36.196 178.32 35.8693 177.125 35.216C175.931 34.544 174.988 33.6293 174.297 32.472C173.607 31.3147 173.261 29.9987 173.261 28.524C173.261 27.0307 173.607 25.7147 174.297 24.576C174.988 23.4187 175.931 22.5133 177.125 21.86C178.32 21.2067 179.683 20.88 181.213 20.88C182.763 20.88 184.135 21.2067 185.329 21.86C186.543 22.5133 187.485 23.4093 188.157 24.548C188.848 25.6867 189.193 27.012 189.193 28.524C189.193 29.9987 188.848 31.3147 188.157 32.472C187.485 33.6293 186.543 34.544 185.329 35.216C184.135 35.8693 182.763 36.196 181.213 36.196ZM181.213 33.2C182.072 33.2 182.837 33.0133 183.509 32.64C184.181 32.2667 184.704 31.7253 185.077 31.016C185.469 30.3067 185.665 29.476 185.665 28.524C185.665 27.5533 185.469 26.7227 185.077 26.032C184.704 25.3227 184.181 24.7813 183.509 24.408C182.837 24.0347 182.081 23.848 181.241 23.848C180.383 23.848 179.617 24.0347 178.945 24.408C178.292 24.7813 177.769 25.3227 177.377 26.032C176.985 26.7227 176.789 27.5533 176.789 28.524C176.789 29.476 176.985 30.3067 177.377 31.016C177.769 31.7253 178.292 32.2667 178.945 32.64C179.617 33.0133 180.373 33.2 181.213 33.2ZM192.343 36V21.048H199.651C201.462 21.048 202.88 21.384 203.907 22.056C204.952 22.728 205.475 23.68 205.475 24.912C205.475 26.1253 204.99 27.0773 204.019 27.768C203.048 28.44 201.76 28.776 200.155 28.776L200.575 27.908C202.386 27.908 203.73 28.244 204.607 28.916C205.503 29.5693 205.951 30.5307 205.951 31.8C205.951 33.1253 205.456 34.1613 204.467 34.908C203.478 35.636 201.975 36 199.959 36H192.343ZM195.675 33.452H199.679C200.631 33.452 201.35 33.3027 201.835 33.004C202.32 32.6867 202.563 32.2107 202.563 31.576C202.563 30.904 202.339 30.4093 201.891 30.092C201.443 29.7747 200.743 29.616 199.791 29.616H195.675V33.452ZM195.675 27.292H199.343C200.239 27.292 200.911 27.1333 201.359 26.816C201.826 26.48 202.059 26.0133 202.059 25.416C202.059 24.8 201.826 24.3427 201.359 24.044C200.911 23.7453 200.239 23.596 199.343 23.596H195.675V27.292ZM41.698 64L36.294 56.832L39.15 55.068L45.814 64H41.698ZM30.974 64V49.048H34.474V64H30.974ZM33.438 58.008V55.096H38.506V58.008H33.438ZM39.486 56.944L36.21 56.552L41.698 49.048H45.45L39.486 56.944ZM55.4049 64V49.048H69.7409V64H66.2689V51.204L67.0809 52.016H58.0929L58.9049 51.204V64H55.4049ZM80.8195 64.196C79.2888 64.196 77.9262 63.8693 76.7315 63.216C75.5368 62.544 74.5942 61.6293 73.9035 60.472C73.2128 59.3147 72.8675 57.9987 72.8675 56.524C72.8675 55.0307 73.2128 53.7147 73.9035 52.576C74.5942 51.4187 75.5368 50.5133 76.7315 49.86C77.9262 49.2067 79.2888 48.88 80.8195 48.88C82.3688 48.88 83.7408 49.2067 84.9355 49.86C86.1488 50.5133 87.0915 51.4093 87.7635 52.548C88.4542 53.6867 88.7995 55.012 88.7995 56.524C88.7995 57.9987 88.4542 59.3147 87.7635 60.472C87.0915 61.6293 86.1488 62.544 84.9355 63.216C83.7408 63.8693 82.3688 64.196 80.8195 64.196ZM80.8195 61.2C81.6782 61.2 82.4435 61.0133 83.1155 60.64C83.7875 60.2667 84.3102 59.7253 84.6835 59.016C85.0755 58.3067 85.2715 57.476 85.2715 56.524C85.2715 55.5533 85.0755 54.7227 84.6835 54.032C84.3102 53.3227 83.7875 52.7813 83.1155 52.408C82.4435 52.0347 81.6875 51.848 80.8475 51.848C79.9888 51.848 79.2235 52.0347 78.5515 52.408C77.8982 52.7813 77.3755 53.3227 76.9835 54.032C76.5915 54.7227 76.3955 55.5533 76.3955 56.524C76.3955 57.476 76.5915 58.3067 76.9835 59.016C77.3755 59.7253 77.8982 60.2667 78.5515 60.64C79.2235 61.0133 79.9795 61.2 80.8195 61.2ZM89.601 63.972L89.769 61.032C89.8997 61.0507 90.021 61.0693 90.133 61.088C90.245 61.1067 90.3477 61.116 90.441 61.116C91.0197 61.116 91.4677 60.9387 91.785 60.584C92.1023 60.2293 92.3357 59.7533 92.485 59.156C92.653 58.54 92.765 57.8587 92.821 57.112C92.8957 56.3467 92.9517 55.5813 92.989 54.816L93.241 49.048H105.337V64H101.837V51.064L102.649 52.016H95.537L96.293 51.036L96.097 54.984C96.041 56.3093 95.929 57.5413 95.761 58.68C95.6117 59.8 95.369 60.78 95.033 61.62C94.7157 62.46 94.2677 63.1133 93.689 63.58C93.129 64.0467 92.4103 64.28 91.533 64.28C91.253 64.28 90.945 64.252 90.609 64.196C90.2917 64.14 89.9557 64.0653 89.601 63.972ZM111.087 69.628C110.359 69.628 109.631 69.5067 108.903 69.264C108.175 69.0213 107.568 68.6853 107.083 68.256L108.483 65.68C108.837 65.9973 109.239 66.2493 109.687 66.436C110.135 66.6227 110.592 66.716 111.059 66.716C111.693 66.716 112.207 66.5573 112.599 66.24C112.991 65.9227 113.355 65.3907 113.691 64.644L114.559 62.684L114.839 62.264L120.495 49.048H123.855L116.855 65.204C116.388 66.324 115.865 67.2107 115.287 67.864C114.727 68.5173 114.092 68.9747 113.383 69.236C112.692 69.4973 111.927 69.628 111.087 69.628ZM114.167 64.532L107.419 49.048H111.059L116.547 61.956L114.167 64.532ZM135.414 58.092C134.704 58.428 133.948 58.708 133.146 58.932C132.362 59.1373 131.531 59.24 130.654 59.24C128.768 59.24 127.303 58.8013 126.258 57.924C125.212 57.0467 124.69 55.684 124.69 53.836V49.048H128.19V53.612C128.19 54.6013 128.47 55.32 129.03 55.768C129.608 56.216 130.402 56.44 131.41 56.44C132.082 56.44 132.754 56.356 133.426 56.188C134.098 56.02 134.76 55.7867 135.414 55.488V58.092ZM135.162 64V49.048H138.662V64H135.162ZM150.032 64.196C148.371 64.196 146.915 63.8693 145.664 63.216C144.432 62.544 143.471 61.6293 142.78 60.472C142.108 59.3147 141.772 57.9987 141.772 56.524C141.772 55.0307 142.099 53.7147 142.752 52.576C143.424 51.4187 144.339 50.5133 145.496 49.86C146.672 49.2067 148.007 48.88 149.5 48.88C150.956 48.88 152.254 49.1973 153.392 49.832C154.531 50.4667 155.427 51.3627 156.08 52.52C156.734 53.6773 157.06 55.04 157.06 56.608C157.06 56.7573 157.051 56.9253 157.032 57.112C157.032 57.2987 157.023 57.476 157.004 57.644H144.544V55.32H155.156L153.784 56.048C153.803 55.1893 153.626 54.4333 153.252 53.78C152.879 53.1267 152.366 52.6133 151.712 52.24C151.078 51.8667 150.34 51.68 149.5 51.68C148.642 51.68 147.886 51.8667 147.232 52.24C146.598 52.6133 146.094 53.136 145.72 53.808C145.366 54.4613 145.188 55.236 145.188 56.132V56.692C145.188 57.588 145.394 58.3813 145.804 59.072C146.215 59.7627 146.794 60.2947 147.54 60.668C148.287 61.0413 149.146 61.228 150.116 61.228C150.956 61.228 151.712 61.0973 152.384 60.836C153.056 60.5747 153.654 60.164 154.176 59.604L156.052 61.76C155.38 62.544 154.531 63.1507 153.504 63.58C152.496 63.9907 151.339 64.196 150.032 64.196ZM160.58 64V49.048H164.08V55.124H171.612V49.048H175.112V64H171.612V58.092H164.08V64H160.58ZM179.495 64V49.048H182.995V58.904L191.255 49.048H194.447V64H190.947V54.144L182.715 64H179.495ZM198.847 64V49.048H202.347V54.844H206.799V58.008H202.347V64H198.847ZM212.511 64.196C211.018 64.196 209.683 63.8693 208.507 63.216C207.35 62.544 206.435 61.6293 205.763 60.472C205.091 59.3147 204.755 57.9987 204.755 56.524C204.755 55.0307 205.091 53.7053 205.763 52.548C206.435 51.3907 207.35 50.4947 208.507 49.86C209.683 49.2067 211.018 48.88 212.511 48.88C214.023 48.88 215.358 49.2067 216.515 49.86C217.691 50.4947 218.615 51.3907 219.287 52.548C219.959 53.7053 220.295 55.0307 220.295 56.524C220.295 57.9987 219.959 59.324 219.287 60.5C218.615 61.6573 217.691 62.5627 216.515 63.216C215.358 63.8693 214.023 64.196 212.511 64.196ZM212.511 61.228C213.351 61.228 214.088 61.032 214.723 60.64C215.376 60.248 215.89 59.7067 216.263 59.016C216.636 58.3253 216.823 57.4947 216.823 56.524C216.823 55.5533 216.636 54.7227 216.263 54.032C215.89 53.3227 215.376 52.7813 214.723 52.408C214.088 52.0347 213.36 51.848 212.539 51.848C211.718 51.848 210.98 52.0347 210.327 52.408C209.674 52.7813 209.16 53.3227 208.787 54.032C208.414 54.7227 208.227 55.5533 208.227 56.524C208.227 57.4947 208.414 58.3253 208.787 59.016C209.16 59.7067 209.674 60.248 210.327 60.64C210.98 61.032 211.708 61.228 212.511 61.228Z" fill="black"/>
</svg>
