<svg width="76" height="72" viewBox="0 0 76 72" fill="none" xmlns="http://www.w3.org/2000/svg">
<path d="M4 4H16.3636L24.6473 44.8076C24.9299 46.2107 25.7041 47.4711 26.8342 48.3681C27.9644 49.2652 29.3785 49.7417 30.8291 49.7143H60.8727C62.3233 49.7417 63.7374 49.2652 64.8676 48.3681C65.9977 47.4711 66.7719 46.2107 67.0545 44.8076L72 19.2381H19.4545M31.8182 64.9524C31.8182 66.6355 30.4343 68 28.7273 68C27.0202 68 25.6364 66.6355 25.6364 64.9524C25.6364 63.2692 27.0202 61.9048 28.7273 61.9048C30.4343 61.9048 31.8182 63.2692 31.8182 64.9524ZM65.8182 64.9524C65.8182 66.6355 64.4343 68 62.7273 68C61.0202 68 59.6364 66.6355 59.6364 64.9524C59.6364 63.2692 61.0202 61.9048 62.7273 61.9048C64.4343 61.9048 65.8182 63.2692 65.8182 64.9524Z" stroke="#F3F3F3" stroke-width="7" stroke-linecap="round" stroke-linejoin="round"/>
</svg>
