<svg width="250" height="49" viewBox="0 0 250 49" fill="none" xmlns="http://www.w3.org/2000/svg">
<rect width="250" height="49" rx="10" fill="#ABABAB"/>
<path d="M50.9887 35V15.4H59.7527C61.9553 15.4 63.6727 15.8387 64.9047 16.716C66.1367 17.5747 66.7527 18.816 66.7527 20.44C66.7527 22.0453 66.1647 23.2867 64.9887 24.164C63.8127 25.0227 62.2633 25.452 60.3407 25.452L60.8447 24.444C63.0287 24.444 64.718 24.8827 65.9127 25.76C67.1073 26.6373 67.7047 27.9067 67.7047 29.568C67.7047 31.2667 67.0793 32.6013 65.8287 33.572C64.578 34.524 62.73 35 60.2847 35H50.9887ZM54.5727 32.2H60.1727C61.442 32.2 62.4033 31.9667 63.0567 31.5C63.71 31.0147 64.0367 30.2773 64.0367 29.288C64.0367 28.2987 63.71 27.58 63.0567 27.132C62.4033 26.6653 61.442 26.432 60.1727 26.432H54.5727V32.2ZM54.5727 23.772H59.4447C60.6207 23.772 61.5167 23.5387 62.1327 23.072C62.7487 22.5867 63.0567 21.896 63.0567 21C63.0567 20.0667 62.7487 19.3667 62.1327 18.9C61.5167 18.4333 60.6207 18.2 59.4447 18.2H54.5727V23.772ZM86.2433 35V20.048H89.7433V35H86.2433ZM78.4313 24.976C80.354 24.976 81.81 25.4053 82.7993 26.264C83.8073 27.1227 84.3113 28.336 84.3113 29.904C84.3113 31.528 83.7513 32.7973 82.6313 33.712C81.53 34.608 79.962 35.0467 77.9273 35.028L71.1513 35V20.048H74.6513V24.948L78.4313 24.976ZM77.6193 32.452C78.646 32.4707 79.43 32.256 79.9713 31.808C80.5126 31.36 80.7833 30.7067 80.7833 29.848C80.7833 28.9893 80.5126 28.3733 79.9713 28C79.4486 27.608 78.6646 27.4027 77.6193 27.384L74.6513 27.356V32.424L77.6193 32.452ZM94.1402 35V20.048H108.476V35H105.004V22.204L105.816 23.016H96.8282L97.6402 22.204V35H94.1402ZM119.555 35.196C118.024 35.196 116.661 34.8693 115.467 34.216C114.272 33.544 113.329 32.6293 112.639 31.472C111.948 30.3147 111.603 28.9987 111.603 27.524C111.603 26.0307 111.948 24.7147 112.639 23.576C113.329 22.4187 114.272 21.5133 115.467 20.86C116.661 20.2067 118.024 19.88 119.555 19.88C121.104 19.88 122.476 20.2067 123.671 20.86C124.884 21.5133 125.827 22.4093 126.499 23.548C127.189 24.6867 127.535 26.012 127.535 27.524C127.535 28.9987 127.189 30.3147 126.499 31.472C125.827 32.6293 124.884 33.544 123.671 34.216C122.476 34.8693 121.104 35.196 119.555 35.196ZM119.555 32.2C120.413 32.2 121.179 32.0133 121.851 31.64C122.523 31.2667 123.045 30.7253 123.419 30.016C123.811 29.3067 124.007 28.476 124.007 27.524C124.007 26.5533 123.811 25.7227 123.419 25.032C123.045 24.3227 122.523 23.7813 121.851 23.408C121.179 23.0347 120.423 22.848 119.583 22.848C118.724 22.848 117.959 23.0347 117.287 23.408C116.633 23.7813 116.111 24.3227 115.719 25.032C115.327 25.7227 115.131 26.5533 115.131 27.524C115.131 28.476 115.327 29.3067 115.719 30.016C116.111 30.7253 116.633 31.2667 117.287 31.64C117.959 32.0133 118.715 32.2 119.555 32.2ZM128.336 34.972L128.504 32.032C128.635 32.0507 128.756 32.0693 128.868 32.088C128.98 32.1067 129.083 32.116 129.176 32.116C129.755 32.116 130.203 31.9387 130.52 31.584C130.838 31.2293 131.071 30.7533 131.22 30.156C131.388 29.54 131.5 28.8587 131.556 28.112C131.631 27.3467 131.687 26.5813 131.724 25.816L131.976 20.048H144.072V35H140.572V22.064L141.384 23.016H134.272L135.028 22.036L134.832 25.984C134.776 27.3093 134.664 28.5413 134.496 29.68C134.347 30.8 134.104 31.78 133.768 32.62C133.451 33.46 133.003 34.1133 132.424 34.58C131.864 35.0467 131.146 35.28 130.268 35.28C129.988 35.28 129.68 35.252 129.344 35.196C129.027 35.14 128.691 35.0653 128.336 34.972ZM148.478 35V20.048H151.978V26.124H159.51V20.048H163.01V35H159.51V29.092H151.978V35H148.478ZM174.365 35.196C172.703 35.196 171.247 34.8693 169.997 34.216C168.765 33.544 167.803 32.6293 167.113 31.472C166.441 30.3147 166.105 28.9987 166.105 27.524C166.105 26.0307 166.431 24.7147 167.085 23.576C167.757 22.4187 168.671 21.5133 169.829 20.86C171.005 20.2067 172.339 19.88 173.833 19.88C175.289 19.88 176.586 20.1973 177.725 20.832C178.863 21.4667 179.759 22.3627 180.413 23.52C181.066 24.6773 181.393 26.04 181.393 27.608C181.393 27.7573 181.383 27.9253 181.365 28.112C181.365 28.2987 181.355 28.476 181.337 28.644H168.877V26.32H179.489L178.117 27.048C178.135 26.1893 177.958 25.4333 177.585 24.78C177.211 24.1267 176.698 23.6133 176.045 23.24C175.41 22.8667 174.673 22.68 173.833 22.68C172.974 22.68 172.218 22.8667 171.565 23.24C170.93 23.6133 170.426 24.136 170.053 24.808C169.698 25.4613 169.521 26.236 169.521 27.132V27.692C169.521 28.588 169.726 29.3813 170.137 30.072C170.547 30.7627 171.126 31.2947 171.873 31.668C172.619 32.0413 173.478 32.228 174.449 32.228C175.289 32.228 176.045 32.0973 176.717 31.836C177.389 31.5747 177.986 31.164 178.509 30.604L180.385 32.76C179.713 33.544 178.863 34.1507 177.837 34.58C176.829 34.9907 175.671 35.196 174.365 35.196ZM184.913 35V20.048H188.413V26.124H195.945V20.048H199.445V35H195.945V29.092H188.413V35H184.913Z" fill="black"/>
</svg>
